<?xml version="1.0" encoding="UTF-8"?>
<svg id="Layer_2" xmlns="http://www.w3.org/2000/svg" xmlns:xlink="http://www.w3.org/1999/xlink" viewBox="0 0 755 126.83">
  <defs>
    <style>
      .cls-1 {
        fill: none;
      }

      .cls-2 {
        fill: url(#linear-gradient);
      }

      .cls-3 {
        fill: #fff;
      }
    </style>
    <clipPath id="clippath">
      <path class="cls-1" d="M0,1.78v123.88c0,.64.52,1.16,1.16,1.16h123.9c.64,0,1.16-.52,1.16-1.16V1.78c0-.64-.52-1.16-1.16-1.16H1.16c-.64-.02-1.16.52-1.16,1.16M99.33,100.74H26.89c-.44,0-.78-.36-.78-.78V27.49c0-.44.36-.78.78-.78h72.46c.44,0,.78.36.78.78v72.46c0,.44-.36.78-.8.78"/>
    </clipPath>
    <linearGradient id="linear-gradient" x1=".35" y1="125.87" x2="125.89" y2=".33" gradientUnits="userSpaceOnUse">
      <stop offset="0" stop-color="#12afce"/>
      <stop offset=".09" stop-color="#15aaca"/>
      <stop offset=".19" stop-color="#209ebe"/>
      <stop offset=".28" stop-color="#3189ab"/>
      <stop offset=".38" stop-color="#4a6c90"/>
      <stop offset=".48" stop-color="#6a476e"/>
      <stop offset=".58" stop-color="#901a44"/>
      <stop offset=".63" stop-color="#a7002c"/>
      <stop offset=".71" stop-color="#af0429"/>
      <stop offset=".83" stop-color="#c70f21"/>
      <stop offset=".99" stop-color="#ee2214"/>
      <stop offset="1" stop-color="#f02314"/>
    </linearGradient>
  </defs>
  <g id="Layer_1-2" data-name="Layer_1">
    <g>
      <g>
        <path class="cls-3" d="M177.03,26.61c0-.34.28-.62.62-.62h30.48c15.55,0,25.51,9.22,25.51,23.49s-9.98,23.49-25.51,23.49h-13.55c-.34,0-.62.28-.62.62v26.87c0,.34-.28.62-.62.62h-15.71c-.34,0-.62-.28-.62-.62V26.61h.02ZM206.4,58.49c6.43,0,10.3-3.43,10.3-9s-3.87-9-10.3-9h-11.82c-.34,0-.62.28-.62.62v16.79c0,.34.28.62.62.62h11.82v-.04Z"/>
        <path class="cls-3" d="M285.52,101.06h-14.37c-.36,0-.64-.28-.64-.64v-5.43c0-.36-.44-.5-.66-.22-2.52,3.13-6.25,5.55-10.76,6.59-12.89,2.97-25.01-7.43-25.01-20.64v-33.04c0-.36.28-.64.64-.64h14.47c.36,0,.64.28.64.64v30.44c0,5.89,3.65,9.86,9.22,9.86,7.51,0,11.48-6.11,11.48-17.27v-23.05c0-.36.28-.64.64-.64h14.37c.36,0,.64.28.64.64v52.76c-.02.36-.3.64-.66.64Z"/>
        <path class="cls-3" d="M305.68,96.61v3.85c0,.34-.28.62-.62.62h-14.53c-.34,0-.62-.28-.62-.62V25.77c0-.34.28-.62.62-.62h14.53c.34,0,.62.28.62.62v25.57c0,.28.34.42.54.2,3.07-3.29,7.98-5.39,14.05-5.39,15.65,0,25.31,10.94,25.31,27.87s-9.66,27.87-25.53,27.87c-5.73,0-10.9-2.08-13.81-5.51-.2-.2-.56-.08-.56.22ZM330.13,74.05c0-8.68-5.03-14.47-12.64-14.47s-12.77,5.79-12.77,14.47,5.05,14.47,12.77,14.47c7.61,0,12.64-5.79,12.64-14.47Z"/>
        <path class="cls-3" d="M349.12,25.15h14.67c.3,0,.54.24.54.54v74.83c0,.3-.24.54-.54.54h-14.67c-.3,0-.54-.24-.54-.54V25.69c-.02-.3.22-.54.54-.54Z"/>
        <path class="cls-3" d="M386.42,25.59v14.23c0,.24-.2.44-.44.44h-15.73c-.24,0-.44-.2-.44-.44v-14.23c0-.24.2-.44.44-.44h15.73c.24,0,.44.2.44.44ZM370.57,47.03h14.87c.24,0,.44.2.44.44v53.14c0,.24-.2.44-.44.44h-14.87c-.24,0-.44-.2-.44-.44v-53.14c0-.24.2-.44.44-.44Z"/>
        <path class="cls-3" d="M388.98,74.05c0-16.41,11.36-27.87,27.65-27.87,14.29,0,24.29,7.11,26.19,18.74.04.26-.12.5-.38.54l-14.33,2.83c-.26.04-.48-.12-.54-.36-1-5.09-4.91-8.34-10.32-8.34-7.39,0-12.12,5.69-12.12,14.47s4.83,14.47,12.12,14.47c5.41,0,8.9-3.03,10.08-7.72.06-.24.28-.4.54-.34l14.45,2.93c.26.06.42.3.38.56-2.12,11.1-12,17.98-26.07,17.98-16.29,0-27.65-11.46-27.65-27.87Z"/>
      </g>
      <g>
        <path class="cls-3" d="M445.45,77.55l13.47-4.01c.4-.12.78.14.86.56,1.26,7.92,7.61,13.15,14.77,13.15,6.75,0,11.14-3.21,11.14-7.92,0-14.13-38.44-5.77-38.44-33.29,0-12.3,11.78-21.08,26.45-21.08s25.73,7.45,28.56,18.58c.08.32-.1.68-.4.8l-13.83,5.79c-.38.16-.8-.06-.9-.46-1.7-6.31-6.61-10.38-13.41-10.38-5.89,0-9.52,2.46-9.52,6.63,0,11.88,38.54,2.36,38.54,32.96,0,13.59-11.56,22.7-28.8,22.7-14.77,0-27.25-9.88-28.96-23.29-.06-.34.14-.66.46-.76Z"/>
        <path class="cls-3" d="M543.43,119.63v-22.36c0-.26-.3-.38-.5-.2-2.95,2.89-7.76,4.51-13.33,4.51-15.41,0-25.91-10.92-25.91-27.83s9.64-27.83,24.63-27.83c6.47,0,11.52,2.2,14.59,5.61.18.2.5.08.5-.18v-3.99c0-.32.26-.58.58-.58h14.57c.32,0,.58.26.58.58v72.26c0,.32-.26.58-.58.58h-14.57c-.3.02-.56-.24-.56-.56ZM544.39,73.76c0-8.68-5.03-14.45-12.75-14.45s-12.62,5.77-12.62,14.45,5.03,14.45,12.62,14.45,12.75-5.77,12.75-14.45Z"/>
        <path class="cls-3" d="M612.92,100.74h-14.33c-.36,0-.64-.28-.64-.64v-5.57c0-.3-.38-.44-.58-.2-2.52,3.19-6.27,5.65-10.84,6.69-12.85,2.97-24.97-7.41-24.97-20.62v-32.96c0-.36.28-.64.64-.64h14.45c.36,0,.64.28.64.64v30.4c0,5.89,3.65,9.86,9.2,9.86,7.49,0,11.46-6.11,11.46-17.23v-23.03c0-.36.28-.64.64-.64h14.33c.36,0,.64.28.64.64v52.66c0,.36-.28.64-.64.64Z"/>
        <path class="cls-3" d="M663.66,68.74v31.6c0,.22-.18.4-.4.4h-14.39c-.22,0-.4-.18-.4-.4v-5.89c0-.18-.2-.24-.32-.1-3.19,4.45-9.1,7.25-14.89,7.25-10.5,0-17.88-7.07-17.88-16.05,0-10.7,7.82-16.49,23.35-18.1l9.74-.96v-.34c0-5.35-3.65-8.56-9.42-8.56-4.99,0-8.68,2.95-9.38,7.94-.04.22-.24.38-.46.34l-12.89-2.42c-.22-.04-.38-.26-.34-.48,1.9-10.36,11.64-17.03,23.05-17.03,14.67,0,24.63,7.59,24.63,22.8ZM648.45,78.37v-.84l-10.06,1.18c-5.35.54-8.04,3.21-8.04,6.31s2.36,5.35,6.75,5.35c7.07-.02,11.24-5.69,11.34-12Z"/>
        <path class="cls-3" d="M696.2,60.6c-7.07,0-13.81,5.35-13.81,20.66v19.08c0,.22-.18.42-.42.42h-14.91c-.22,0-.42-.18-.42-.42v-53.14c0-.22.18-.42.42-.42h14.91c.22,0,.42.18.42.42v8.1c0,.2.26.26.34.08,2.71-5.41,9.36-9.44,15.51-9.44,1.7,0,3.97.28,5.49.76.18.06.3.24.28.42l-.9,14.19c-.02.28-.3.46-.56.34-1.78-.7-4.11-1.04-6.35-1.04Z"/>
        <path class="cls-3" d="M754.4,78.25h-37.91c-.24,0-.4.22-.36.46,1.6,6.35,6.03,9.82,12.52,9.82,5.19,0,9.08-2.32,10.38-6.57.06-.22.28-.34.5-.28l13.95,3.75c.24.06.38.32.3.56-3.35,9.9-12.89,15.63-25.55,15.63-18.64,0-27.73-14.45-27.73-27.83s8.14-27.83,26.77-27.83,27.73,14.45,27.73,26.45c0,1.94-.08,4.23-.18,5.51-.02.18-.22.34-.42.34ZM737.79,67.13c.22,0,.38-.2.36-.4-.66-5.25-4.09-9.12-10.88-9.12-5.53,0-9.34,3.07-10.92,9.08-.06.22.12.46.34.46h21.1v-.02Z"/>
      </g>
    </g>
    <path class="cls-2" d="M0,1.16v123.88c0,.64.52,1.16,1.16,1.16h123.9c.64,0,1.16-.52,1.16-1.16V1.16C126.24.52,125.72,0,125.08,0H1.17C.53-.02,0,.52,0,1.16ZM99.34,100.12H26.9c-.44,0-.78-.36-.78-.78V26.87c0-.44.36-.78.78-.78h72.46c.44,0,.78.36.78.78v72.46c0,.44-.36.78-.8.78Z"/>
  </g>
</svg>