<?xml version="1.0" encoding="UTF-8"?>
<svg id="Layer_2" xmlns="http://www.w3.org/2000/svg" xmlns:xlink="http://www.w3.org/1999/xlink" viewBox="0 0 757.08 126.56">
  <defs>
    <style>
      .cls-1 {
        fill: none;
      }

      .cls-2 {
        fill: url(#linear-gradient);
      }
    </style>
    <clipPath id="clippath">
      <path class="cls-1" d="M0,1.17v124.22c0,.64.52,1.17,1.17,1.17h124.24c.64,0,1.17-.52,1.17-1.17V1.17C126.58.52,126.05,0,125.41,0H1.17C.52-.02,0,.52,0,1.17M99.61,100.39H26.97c-.44,0-.78-.36-.78-.78V26.95c0-.44.36-.78.78-.78h72.66c.44,0,.78.36.78.78v72.66c0,.44-.36.78-.8.78"/>
    </clipPath>
    <linearGradient id="linear-gradient" x1=".35" y1="126.22" x2="126.24" y2=".34" gradientUnits="userSpaceOnUse">
      <stop offset="0" stop-color="#12afce"/>
      <stop offset=".09" stop-color="#15aaca"/>
      <stop offset=".19" stop-color="#209ebe"/>
      <stop offset=".28" stop-color="#3189ab"/>
      <stop offset=".38" stop-color="#4a6c90"/>
      <stop offset=".48" stop-color="#6a476e"/>
      <stop offset=".58" stop-color="#901a44"/>
      <stop offset=".63" stop-color="#a7002c"/>
      <stop offset=".71" stop-color="#af0429"/>
      <stop offset=".83" stop-color="#c70f21"/>
      <stop offset=".99" stop-color="#ee2214"/>
      <stop offset="1" stop-color="#f02314"/>
    </linearGradient>
  </defs>
  <g id="Layer_1-2" data-name="Layer_1">
    <g>
      <g>
        <path d="M177.51,26.06c0-.34.28-.62.62-.62h30.56c15.59,0,25.58,9.24,25.58,23.55s-10.01,23.55-25.58,23.55h-13.58c-.34,0-.62.28-.62.62v26.95c0,.34-.28.62-.62.62h-15.75c-.34,0-.62-.28-.62-.62V26.06h.02ZM206.97,58.03c6.45,0,10.33-3.44,10.33-9.02s-3.88-9.02-10.33-9.02h-11.86c-.34,0-.62.28-.62.62v16.84c0,.34.28.62.62.62h11.86v-.04Z"/>
        <path d="M286.31,100.71h-14.41c-.36,0-.64-.28-.64-.64v-5.45c0-.36-.44-.5-.66-.22-2.53,3.13-6.27,5.57-10.79,6.61-12.92,2.97-25.08-7.46-25.08-20.7v-33.14c0-.36.28-.64.64-.64h14.51c.36,0,.64.28.64.64v30.52c0,5.91,3.66,9.89,9.24,9.89,7.54,0,11.51-6.13,11.51-17.32v-23.11c0-.36.28-.64.64-.64h14.41c.36,0,.64.28.64.64v52.91c-.02.36-.3.64-.66.64Z"/>
        <path d="M306.52,96.25v3.86c0,.34-.28.62-.62.62h-14.57c-.34,0-.62-.28-.62-.62V25.22c0-.34.28-.62.62-.62h14.57c.34,0,.62.28.62.62v25.64c0,.28.34.42.54.2,3.07-3.3,8-5.41,14.09-5.41,15.69,0,25.38,10.97,25.38,27.95s-9.69,27.95-25.6,27.95c-5.75,0-10.93-2.09-13.85-5.53-.2-.2-.56-.08-.56.22ZM331.04,73.63c0-8.7-5.04-14.51-12.68-14.51s-12.8,5.81-12.8,14.51,5.06,14.51,12.8,14.51c7.64,0,12.68-5.81,12.68-14.51Z"/>
        <path d="M350.09,24.6h14.71c.3,0,.54.24.54.54v75.03c0,.3-.24.54-.54.54h-14.71c-.3,0-.54-.24-.54-.54V25.14c-.02-.3.22-.54.54-.54Z"/>
        <path d="M387.48,25.04v14.27c0,.24-.2.44-.44.44h-15.77c-.24,0-.44-.2-.44-.44v-14.27c0-.24.2-.44.44-.44h15.77c.24,0,.44.2.44.44ZM371.59,46.54h14.91c.24,0,.44.2.44.44v53.29c0,.24-.2.44-.44.44h-14.91c-.24,0-.44-.2-.44-.44v-53.29c0-.24.2-.44.44-.44Z"/>
        <path d="M390.05,73.63c0-16.46,11.39-27.95,27.73-27.95,14.33,0,24.35,7.13,26.26,18.79.04.26-.12.5-.38.54l-14.37,2.83c-.26.04-.48-.12-.54-.36-1-5.1-4.92-8.36-10.35-8.36-7.41,0-12.16,5.71-12.16,14.51s4.84,14.51,12.16,14.51c5.43,0,8.92-3.03,10.11-7.74.06-.24.28-.4.54-.34l14.49,2.93c.26.06.42.3.38.56-2.13,11.13-12.04,18.02-26.14,18.02-16.34,0-27.73-11.49-27.73-27.95Z"/>
      </g>
      <g>
        <path d="M446.68,77.14l13.5-4.02c.4-.12.78.14.86.56,1.27,7.94,7.64,13.18,14.81,13.18,6.77,0,11.17-3.22,11.17-7.94,0-14.17-38.54-5.79-38.54-33.38,0-12.34,11.82-21.14,26.52-21.14s25.8,7.48,28.63,18.63c.08.32-.1.68-.4.8l-13.87,5.81c-.38.16-.8-.06-.9-.46-1.71-6.33-6.63-10.41-13.44-10.41-5.91,0-9.54,2.47-9.54,6.65,0,11.92,38.64,2.37,38.64,33.06,0,13.62-11.59,22.77-28.88,22.77-14.81,0-27.33-9.91-29.04-23.35-.06-.34.14-.66.46-.76Z"/>
        <path d="M544.92,119.34v-22.43c0-.26-.3-.38-.5-.2-2.95,2.89-7.78,4.52-13.36,4.52-15.45,0-25.98-10.95-25.98-27.91s9.67-27.91,24.7-27.91c6.49,0,11.55,2.21,14.63,5.63.18.2.5.08.5-.18v-4c0-.32.26-.58.58-.58h14.61c.32,0,.58.26.58.58v72.46c0,.32-.26.58-.58.58h-14.61c-.3.02-.56-.24-.56-.56ZM545.89,73.35c0-8.7-5.04-14.49-12.78-14.49s-12.66,5.79-12.66,14.49,5.04,14.49,12.66,14.49,12.78-5.79,12.78-14.49Z"/>
        <path d="M614.61,100.39h-14.37c-.36,0-.64-.28-.64-.64v-5.59c0-.3-.38-.44-.58-.2-2.53,3.2-6.29,5.67-10.87,6.71-12.88,2.97-25.04-7.43-25.04-20.68v-33.06c0-.36.28-.64.64-.64h14.49c.36,0,.64.28.64.64v30.48c0,5.91,3.66,9.89,9.22,9.89,7.52,0,11.49-6.13,11.49-17.28v-23.09c0-.36.28-.64.64-.64h14.37c.36,0,.64.28.64.64v52.81c0,.36-.28.64-.64.64Z"/>
        <path d="M665.49,68.3v31.69c0,.22-.18.4-.4.4h-14.43c-.22,0-.4-.18-.4-.4v-5.91c0-.18-.2-.24-.32-.1-3.2,4.46-9.12,7.27-14.93,7.27-10.53,0-17.92-7.09-17.92-16.1,0-10.73,7.84-16.54,23.41-18.15l9.77-.96v-.34c0-5.37-3.66-8.58-9.44-8.58-5,0-8.7,2.95-9.4,7.96-.04.22-.24.38-.46.34l-12.92-2.43c-.22-.04-.38-.26-.34-.48,1.91-10.39,11.67-17.08,23.11-17.08,14.71,0,24.7,7.62,24.7,22.87ZM650.24,77.97v-.84l-10.09,1.19c-5.37.54-8.06,3.22-8.06,6.33s2.37,5.37,6.77,5.37c7.09-.02,11.27-5.71,11.37-12.04Z"/>
        <path d="M698.12,60.14c-7.09,0-13.85,5.37-13.85,20.72v19.13c0,.22-.18.42-.42.42h-14.95c-.22,0-.42-.18-.42-.42v-53.29c0-.22.18-.42.42-.42h14.95c.22,0,.42.18.42.42v8.12c0,.2.26.26.34.08,2.71-5.43,9.38-9.46,15.55-9.46,1.71,0,3.98.28,5.51.76.18.06.3.24.28.42l-.9,14.23c-.02.28-.3.46-.56.34-1.79-.7-4.12-1.04-6.37-1.04Z"/>
        <path d="M756.48,77.85h-38.02c-.24,0-.4.22-.36.46,1.61,6.37,6.05,9.85,12.56,9.85,5.2,0,9.1-2.33,10.41-6.59.06-.22.28-.34.5-.28l13.99,3.76c.24.06.38.32.3.56-3.36,9.93-12.92,15.67-25.62,15.67-18.69,0-27.81-14.49-27.81-27.91s8.16-27.91,26.85-27.91,27.81,14.49,27.81,26.52c0,1.95-.08,4.24-.18,5.53-.02.18-.22.34-.42.34ZM739.82,66.69c.22,0,.38-.2.36-.4-.66-5.26-4.1-9.14-10.91-9.14-5.55,0-9.36,3.07-10.95,9.1-.06.22.12.46.34.46h21.16v-.02Z"/>
      </g>
    </g>
    <path class="cls-2" d="M0,1.17v124.22c0,.64.52,1.17,1.17,1.17h124.24c.64,0,1.17-.52,1.17-1.17V1.17C126.59.52,126.06,0,125.42,0H1.18C.53-.02,0,.52,0,1.17ZM99.62,100.39H26.98c-.44,0-.78-.36-.78-.78V26.95c0-.44.36-.78.78-.78h72.66c.44,0,.78.36.78.78v72.66c0,.44-.36.78-.8.78Z"/>
  </g>
</svg>